<svg xmlns="http://www.w3.org/2000/svg" xmlns:xlink="http://www.w3.org/1999/xlink" width="500" zoomAndPan="magnify" viewBox="0 0 375 374.999991" height="500" preserveAspectRatio="xMidYMid meet" version="1.0"><defs><g/></defs><g fill="#800000" fill-opacity="1"><g transform="translate(15.250111, 209.999986)"><g><path d="M 3.953125 0 L 3.953125 -45.4375 L 13.546875 -45.4375 L 13.546875 -7.921875 L 33.03125 -7.921875 L 33.03125 0 Z M 3.953125 0 "/></g></g></g><g fill="#800000" fill-opacity="1"><g transform="translate(50.076809, 209.999986)"><g><path d="M 11.78125 0 L 1.484375 0 L 17.171875 -45.4375 L 29.546875 -45.4375 L 45.203125 0 L 34.921875 0 L 31.546875 -10.359375 L 15.15625 -10.359375 Z M 17.59375 -17.859375 L 29.125 -17.859375 L 23.53125 -35.046875 L 23.1875 -35.046875 Z M 17.59375 -17.859375 "/></g></g></g><g fill="#800000" fill-opacity="1"><g transform="translate(96.173441, 209.999986)"><g><path d="M 12.953125 -45.4375 L 22.109375 -29.953125 L 22.46875 -29.953125 L 31.671875 -45.4375 L 42.53125 -45.4375 L 28.65625 -22.71875 L 42.84375 0 L 31.78125 0 L 22.46875 -15.5 L 22.109375 -15.5 L 12.796875 0 L 1.796875 0 L 16.015625 -22.71875 L 2.0625 -45.4375 Z M 12.953125 -45.4375 "/></g></g></g><g fill="#243743" fill-opacity="1"><g transform="translate(140.195415, 209.999986)"><g><path d="M 34.078125 -30.75 C 33.472656 -32.875 32.351562 -34.539062 30.71875 -35.75 C 29.082031 -36.957031 27.03125 -37.5625 24.5625 -37.5625 C 21.082031 -37.5625 18.265625 -36.273438 16.109375 -33.703125 C 13.960938 -31.140625 12.890625 -27.492188 12.890625 -22.765625 C 12.890625 -18.015625 13.945312 -14.34375 16.0625 -11.75 C 18.175781 -9.164062 21.035156 -7.875 24.640625 -7.875 C 27.835938 -7.875 30.347656 -8.703125 32.171875 -10.359375 C 34.003906 -12.023438 34.945312 -14.265625 35 -17.078125 L 25.25 -17.078125 L 25.25 -24.3125 L 44.25 -24.3125 L 44.25 -18.59375 C 44.25 -14.613281 43.40625 -11.1875 41.71875 -8.3125 C 40.039062 -5.4375 37.722656 -3.226562 34.765625 -1.6875 C 31.816406 -0.144531 28.425781 0.625 24.59375 0.625 C 20.34375 0.625 16.601562 -0.316406 13.375 -2.203125 C 10.15625 -4.085938 7.644531 -6.769531 5.84375 -10.25 C 4.050781 -13.738281 3.15625 -17.878906 3.15625 -22.671875 C 3.15625 -27.578125 4.09375 -31.773438 5.96875 -35.265625 C 7.84375 -38.753906 10.382812 -41.421875 13.59375 -43.265625 C 16.800781 -45.117188 20.40625 -46.046875 24.40625 -46.046875 C 27.832031 -46.046875 30.9375 -45.394531 33.71875 -44.09375 C 36.5 -42.800781 38.773438 -41.003906 40.546875 -38.703125 C 42.328125 -36.398438 43.421875 -33.75 43.828125 -30.75 Z M 34.078125 -30.75 "/></g></g></g><g fill="#243743" fill-opacity="1"><g transform="translate(187.090697, 209.999986)"><g><path d="M 3.765625 0 L 3.765625 -34.078125 L 12.9375 -34.078125 L 12.9375 -28.125 L 13.28125 -28.125 C 13.90625 -30.238281 14.945312 -31.835938 16.40625 -32.921875 C 17.863281 -34.015625 19.550781 -34.5625 21.46875 -34.5625 C 22.382812 -34.5625 23.234375 -34.445312 24.015625 -34.21875 C 24.804688 -34 25.507812 -33.695312 26.125 -33.3125 L 23.296875 -25.515625 C 22.847656 -25.734375 22.359375 -25.921875 21.828125 -26.078125 C 21.304688 -26.234375 20.722656 -26.3125 20.078125 -26.3125 C 18.171875 -26.3125 16.554688 -25.660156 15.234375 -24.359375 C 13.910156 -23.054688 13.238281 -21.363281 13.21875 -19.28125 L 13.21875 0 Z M 3.765625 0 "/></g></g></g><g fill="#243743" fill-opacity="1"><g transform="translate(213.243094, 209.999986)"><g><path d="M 13.484375 0.640625 C 10.234375 0.640625 7.535156 -0.207031 5.390625 -1.90625 C 3.242188 -3.601562 2.171875 -6.140625 2.171875 -9.515625 C 2.171875 -12.054688 2.769531 -14.050781 3.96875 -15.5 C 5.164062 -16.957031 6.738281 -18.019531 8.6875 -18.6875 C 10.632812 -19.363281 12.726562 -19.804688 14.96875 -20.015625 C 17.925781 -20.304688 20.039062 -20.613281 21.3125 -20.9375 C 22.582031 -21.257812 23.21875 -21.972656 23.21875 -23.078125 L 23.21875 -23.203125 C 23.21875 -24.609375 22.78125 -25.695312 21.90625 -26.46875 C 21.03125 -27.238281 19.785156 -27.625 18.171875 -27.625 C 16.460938 -27.625 15.101562 -27.253906 14.09375 -26.515625 C 13.09375 -25.773438 12.429688 -24.832031 12.109375 -23.6875 L 3.375 -24.40625 C 4.019531 -27.507812 5.632812 -29.96875 8.21875 -31.78125 C 10.800781 -33.601562 14.132812 -34.515625 18.21875 -34.515625 C 20.738281 -34.515625 23.097656 -34.113281 25.296875 -33.3125 C 27.503906 -32.519531 29.285156 -31.273438 30.640625 -29.578125 C 31.992188 -27.890625 32.671875 -25.691406 32.671875 -22.984375 L 32.671875 0 L 23.71875 0 L 23.71875 -4.71875 L 23.453125 -4.71875 C 22.617188 -3.132812 21.378906 -1.84375 19.734375 -0.84375 C 18.085938 0.144531 16.003906 0.640625 13.484375 0.640625 Z M 16.1875 -5.875 C 18.257812 -5.875 19.960938 -6.476562 21.296875 -7.6875 C 22.628906 -8.894531 23.296875 -10.390625 23.296875 -12.171875 L 23.296875 -15.796875 C 22.921875 -15.546875 22.34375 -15.320312 21.5625 -15.125 C 20.789062 -14.9375 19.960938 -14.769531 19.078125 -14.625 C 18.203125 -14.488281 17.414062 -14.367188 16.71875 -14.265625 C 15.0625 -14.023438 13.726562 -13.554688 12.71875 -12.859375 C 11.707031 -12.171875 11.203125 -11.160156 11.203125 -9.828125 C 11.203125 -8.523438 11.671875 -7.539062 12.609375 -6.875 C 13.546875 -6.207031 14.738281 -5.875 16.1875 -5.875 Z M 16.1875 -5.875 "/></g></g></g><g fill="#243743" fill-opacity="1"><g transform="translate(248.868457, 209.999986)"><g><path d="M 16.328125 0.546875 C 13.734375 0.546875 11.394531 -0.117188 9.3125 -1.453125 C 7.226562 -2.785156 5.570312 -4.757812 4.34375 -7.375 C 3.113281 -9.988281 2.5 -13.195312 2.5 -17 C 2.5 -20.894531 3.128906 -24.140625 4.390625 -26.734375 C 5.660156 -29.335938 7.34375 -31.285156 9.4375 -32.578125 C 11.53125 -33.867188 13.820312 -34.515625 16.3125 -34.515625 C 18.21875 -34.515625 19.804688 -34.191406 21.078125 -33.546875 C 22.359375 -32.910156 23.394531 -32.117188 24.1875 -31.171875 C 24.976562 -30.222656 25.582031 -29.28125 26 -28.34375 L 26.28125 -28.34375 L 26.28125 -45.4375 L 35.71875 -45.4375 L 35.71875 0 L 26.390625 0 L 26.390625 -5.453125 L 26 -5.453125 C 25.570312 -4.503906 24.953125 -3.566406 24.140625 -2.640625 C 23.328125 -1.722656 22.28125 -0.960938 21 -0.359375 C 19.71875 0.242188 18.160156 0.546875 16.328125 0.546875 Z M 19.328125 -6.96875 C 21.597656 -6.96875 23.359375 -7.882812 24.609375 -9.71875 C 25.859375 -11.5625 26.484375 -14 26.484375 -17.03125 C 26.484375 -20.082031 25.863281 -22.503906 24.625 -24.296875 C 23.382812 -26.097656 21.617188 -27 19.328125 -27 C 16.984375 -27 15.203125 -26.078125 13.984375 -24.234375 C 12.765625 -22.390625 12.15625 -19.988281 12.15625 -17.03125 C 12.15625 -14.0625 12.769531 -11.640625 14 -9.765625 C 15.226562 -7.898438 17.003906 -6.96875 19.328125 -6.96875 Z M 19.328125 -6.96875 "/></g></g></g><g fill="#243743" fill-opacity="1"><g transform="translate(287.932473, 209.999986)"><g><path d="M 19.296875 0.671875 C 15.804688 0.671875 12.796875 -0.0390625 10.265625 -1.46875 C 7.742188 -2.894531 5.800781 -4.921875 4.4375 -7.546875 C 3.070312 -10.171875 2.390625 -13.28125 2.390625 -16.875 C 2.390625 -20.382812 3.070312 -23.460938 4.4375 -26.109375 C 5.800781 -28.753906 7.71875 -30.816406 10.1875 -32.296875 C 12.664062 -33.773438 15.578125 -34.515625 18.921875 -34.515625 C 21.921875 -34.515625 24.628906 -33.878906 27.046875 -32.609375 C 29.460938 -31.335938 31.378906 -29.414062 32.796875 -26.84375 C 34.222656 -24.28125 34.9375 -21.070312 34.9375 -17.21875 L 34.9375 -14.625 L 11.734375 -14.625 L 11.734375 -14.59375 C 11.734375 -12.050781 12.425781 -10.046875 13.8125 -8.578125 C 15.207031 -7.117188 17.085938 -6.390625 19.453125 -6.390625 C 21.035156 -6.390625 22.40625 -6.722656 23.5625 -7.390625 C 24.71875 -8.054688 25.53125 -9.039062 26 -10.34375 L 34.734375 -9.765625 C 34.066406 -6.597656 32.378906 -4.066406 29.671875 -2.171875 C 26.972656 -0.273438 23.515625 0.671875 19.296875 0.671875 Z M 11.734375 -20.46875 L 26.046875 -20.46875 C 26.023438 -22.5 25.367188 -24.171875 24.078125 -25.484375 C 22.796875 -26.804688 21.128906 -27.46875 19.078125 -27.46875 C 16.972656 -27.46875 15.25 -26.785156 13.90625 -25.421875 C 12.5625 -24.054688 11.835938 -22.40625 11.734375 -20.46875 Z M 11.734375 -20.46875 "/></g></g></g><g fill="#243743" fill-opacity="1"><g transform="translate(324.644888, 209.999986)"><g><path d="M 32.125 -24.359375 L 23.46875 -23.828125 C 23.226562 -24.921875 22.628906 -25.859375 21.671875 -26.640625 C 20.710938 -27.421875 19.410156 -27.8125 17.765625 -27.8125 C 16.304688 -27.8125 15.066406 -27.503906 14.046875 -26.890625 C 13.035156 -26.285156 12.539062 -25.472656 12.5625 -24.453125 C 12.539062 -23.628906 12.859375 -22.9375 13.515625 -22.375 C 14.179688 -21.820312 15.300781 -21.375 16.875 -21.03125 L 23.046875 -19.78125 C 29.597656 -18.4375 32.878906 -15.363281 32.890625 -10.5625 C 32.890625 -8.320312 32.234375 -6.359375 30.921875 -4.671875 C 29.617188 -2.992188 27.828125 -1.679688 25.546875 -0.734375 C 23.273438 0.203125 20.664062 0.671875 17.71875 0.671875 C 13.207031 0.671875 9.613281 -0.269531 6.9375 -2.15625 C 4.257812 -4.039062 2.703125 -6.613281 2.265625 -9.875 L 11.5625 -10.359375 C 11.851562 -8.972656 12.535156 -7.921875 13.609375 -7.203125 C 14.679688 -6.492188 16.0625 -6.140625 17.75 -6.140625 C 19.40625 -6.140625 20.738281 -6.460938 21.75 -7.109375 C 22.757812 -7.765625 23.273438 -8.597656 23.296875 -9.609375 C 23.242188 -11.296875 21.785156 -12.425781 18.921875 -13 L 13.015625 -14.171875 C 6.421875 -15.492188 3.140625 -18.738281 3.171875 -23.90625 C 3.160156 -27.195312 4.472656 -29.785156 7.109375 -31.671875 C 9.742188 -33.566406 13.242188 -34.515625 17.609375 -34.515625 C 21.910156 -34.515625 25.300781 -33.601562 27.78125 -31.78125 C 30.257812 -29.96875 31.707031 -27.492188 32.125 -24.359375 Z M 32.125 -24.359375 "/></g></g></g></svg>