<svg xmlns="http://www.w3.org/2000/svg" xmlns:xlink="http://www.w3.org/1999/xlink" width="500" zoomAndPan="magnify" viewBox="0 0 375 374.999991" height="500" preserveAspectRatio="xMidYMid meet" version="1.0"><defs><clipPath id="c96a92dce0"><path d="M 280.109375 131.1875 L 337.859375 131.1875 L 337.859375 279.6875 L 280.109375 279.6875 Z M 280.109375 131.1875 " clip-rule="nonzero"/></clipPath><clipPath id="5693f6c1da"><path d="M 197.445312 78.296875 L 259.695312 78.296875 L 259.695312 280.046875 L 197.445312 280.046875 Z M 197.445312 78.296875 " clip-rule="nonzero"/></clipPath><clipPath id="f4cbfc5ddf"><path d="M 116.910156 131.1875 L 170.910156 131.1875 L 170.910156 279.6875 L 116.910156 279.6875 Z M 116.910156 131.1875 " clip-rule="nonzero"/></clipPath><clipPath id="f580de3e84"><path d="M 38.25 175.074219 L 91.5 175.074219 L 91.5 280.074219 L 38.25 280.074219 Z M 38.25 175.074219 " clip-rule="nonzero"/></clipPath></defs><g clip-path="url(#c96a92dce0)"><path fill="#800000" d="M 280.109375 131.1875 L 337.859375 131.1875 L 337.859375 279.6875 L 280.109375 279.6875 Z M 280.109375 131.1875 " fill-opacity="1" fill-rule="nonzero"/></g><g clip-path="url(#5693f6c1da)"><path fill="#800000" d="M 197.445312 78.296875 L 259.695312 78.296875 L 259.695312 280.046875 L 197.445312 280.046875 Z M 197.445312 78.296875 " fill-opacity="1" fill-rule="nonzero"/></g><g clip-path="url(#f4cbfc5ddf)"><path fill="#800000" d="M 116.910156 131.1875 L 170.910156 131.1875 L 170.910156 279.6875 L 116.910156 279.6875 Z M 116.910156 131.1875 " fill-opacity="1" fill-rule="nonzero"/></g><g clip-path="url(#f580de3e84)"><path fill="#800000" d="M 38.25 175.074219 L 91.5 175.074219 L 91.5 280.074219 L 38.25 280.074219 Z M 38.25 175.074219 " fill-opacity="1" fill-rule="nonzero"/></g></svg>